STARTFONT 2.1
FONT -sshbio-miniwi-Regular-R-Normal--10-100-75-75-C-60-ISO8859-1
SIZE 10 75 75
FONTBOUNDINGBOX 4 10 0 -2
COMMENT "Generated by fontforge, http://fontforge.sourceforge.net"
COMMENT "Copyright (c) 2016, sshbio"
STARTPROPERTIES 33
FONTBOUNDINGBOX "4 10 0 -3"
FOUNDRY "sshbio"
FAMILY_NAME "miniwi"
WEIGHT_NAME "Regular"
SLANT "R"
SETWIDTH_NAME "Normal"
ADD_STYLE_NAME ""
PIXEL_SIZE 10
POINT_SIZE 100
RESOLUTION_X 75
RESOLUTION_Y 75
SPACING "C"
AVERAGE_WIDTH 60
CHARSET_REGISTRY "ISO8859"
CHARSET_ENCODING "1"
FONTNAME_REGISTRY ""
CHARSET_COLLECTIONS "ISOLatin1Encoding"
FONT_NAME "miniwi"
FACE_NAME "miniwi"
COPYRIGHT "Copyright (c) 2016, sshbio"
FONT_VERSION "001.000"
FONT_ASCENT 8
FONT_DESCENT 2
UNDERLINE_POSITION -1
UNDERLINE_THICKNESS 1
X_HEIGHT 4
CAP_HEIGHT 6
RAW_ASCENT 750
RAW_DESCENT 250
NORM_SPACE 6
FIGURE_WIDTH 4
AVG_LOWERCASE_WIDTH 4
AVG_UPPERCASE_WIDTH 4
ENDPROPERTIES
CHARS 95
STARTCHAR uni0000
ENCODING 0
SWIDTH 400 0
DWIDTH 4 0
BBX 3 8 0 -1
BITMAP
E0
A0
A0
A0
A0
A0
A0
E0
ENDCHAR
STARTCHAR exclam
ENCODING 33
SWIDTH 400 0
DWIDTH 4 0
BBX 1 7 1 0
BITMAP
80
80
80
80
80
00
80
ENDCHAR
STARTCHAR quotedbl
ENCODING 34
SWIDTH 400 0
DWIDTH 4 0
BBX 3 2 0 5
BITMAP
A0
A0
ENDCHAR
STARTCHAR numbersign
ENCODING 35
SWIDTH 400 0
DWIDTH 4 0
BBX 4 7 0 0
BITMAP
60
60
F0
60
F0
60
60
ENDCHAR
STARTCHAR dollar
ENCODING 36
SWIDTH 400 0
DWIDTH 4 0
BBX 3 9 0 -1
BITMAP
40
E0
C0
C0
E0
60
60
E0
40
ENDCHAR
STARTCHAR percent
ENCODING 37
SWIDTH 400 0
DWIDTH 4 0
BBX 3 7 0 0
BITMAP
A0
20
40
40
40
80
A0
ENDCHAR
STARTCHAR ampersand
ENCODING 38
SWIDTH 400 0
DWIDTH 4 0
BBX 3 7 0 0
BITMAP
40
A0
A0
40
A0
A0
60
ENDCHAR
STARTCHAR quotesingle
ENCODING 39
SWIDTH 400 0
DWIDTH 4 0
BBX 1 2 1 5
BITMAP
80
80
ENDCHAR
STARTCHAR parenleft
ENCODING 40
SWIDTH 400 0
DWIDTH 4 0
BBX 2 9 1 -1
BITMAP
40
80
80
80
80
80
80
80
40
ENDCHAR
STARTCHAR parenright
ENCODING 41
SWIDTH 400 0
DWIDTH 4 0
BBX 3 9 0 -1
BITMAP
80
40
40
40
60
40
40
40
80
ENDCHAR
STARTCHAR asterisk
ENCODING 42
SWIDTH 400 0
DWIDTH 4 0
BBX 3 5 0 1
BITMAP
A0
40
E0
40
A0
ENDCHAR
STARTCHAR plus
ENCODING 43
SWIDTH 400 0
DWIDTH 4 0
BBX 3 3 0 2
BITMAP
40
E0
40
ENDCHAR
STARTCHAR comma
ENCODING 44
SWIDTH 400 0
DWIDTH 4 0
BBX 2 2 0 -1
BITMAP
40
80
ENDCHAR
STARTCHAR hyphen
ENCODING 45
SWIDTH 400 0
DWIDTH 4 0
BBX 3 1 0 3
BITMAP
E0
ENDCHAR
STARTCHAR period
ENCODING 46
SWIDTH 400 0
DWIDTH 4 0
BBX 1 1 1 0
BITMAP
80
ENDCHAR
STARTCHAR slash
ENCODING 47
SWIDTH 400 0
DWIDTH 4 0
BBX 3 9 0 -2
BITMAP
20
20
20
40
40
40
80
80
80
ENDCHAR
STARTCHAR zero
ENCODING 48
SWIDTH 400 0
DWIDTH 4 0
BBX 3 7 0 0
BITMAP
E0
E0
A0
A0
A0
E0
E0
ENDCHAR
STARTCHAR one
ENCODING 49
SWIDTH 400 0
DWIDTH 4 0
BBX 3 7 0 0
BITMAP
40
C0
40
40
40
40
E0
ENDCHAR
STARTCHAR two
ENCODING 50
SWIDTH 400 0
DWIDTH 4 0
BBX 3 7 0 0
BITMAP
E0
20
20
E0
80
80
E0
ENDCHAR
STARTCHAR three
ENCODING 51
SWIDTH 400 0
DWIDTH 4 0
BBX 3 7 0 0
BITMAP
E0
20
20
E0
20
20
E0
ENDCHAR
STARTCHAR four
ENCODING 52
SWIDTH 400 0
DWIDTH 4 0
BBX 3 7 0 0
BITMAP
A0
A0
A0
E0
20
20
20
ENDCHAR
STARTCHAR five
ENCODING 53
SWIDTH 400 0
DWIDTH 4 0
BBX 3 7 0 0
BITMAP
E0
80
80
E0
20
20
E0
ENDCHAR
STARTCHAR six
ENCODING 54
SWIDTH 400 0
DWIDTH 4 0
BBX 3 7 0 0
BITMAP
E0
80
80
E0
A0
A0
E0
ENDCHAR
STARTCHAR seven
ENCODING 55
SWIDTH 400 0
DWIDTH 4 0
BBX 3 7 0 0
BITMAP
E0
20
20
60
20
20
20
ENDCHAR
STARTCHAR eight
ENCODING 56
SWIDTH 400 0
DWIDTH 4 0
BBX 3 7 0 0
BITMAP
E0
A0
A0
E0
A0
A0
E0
ENDCHAR
STARTCHAR nine
ENCODING 57
SWIDTH 400 0
DWIDTH 4 0
BBX 3 7 0 0
BITMAP
E0
A0
A0
E0
20
20
E0
ENDCHAR
STARTCHAR colon
ENCODING 58
SWIDTH 400 0
DWIDTH 4 0
BBX 1 4 1 0
BITMAP
80
00
00
80
ENDCHAR
STARTCHAR semicolon
ENCODING 59
SWIDTH 400 0
DWIDTH 4 0
BBX 2 5 0 -1
BITMAP
40
00
00
40
80
ENDCHAR
STARTCHAR less
ENCODING 60
SWIDTH 400 0
DWIDTH 4 0
BBX 3 5 0 1
BITMAP
20
40
80
40
20
ENDCHAR
STARTCHAR equal
ENCODING 61
SWIDTH 400 0
DWIDTH 4 0
BBX 3 3 0 2
BITMAP
E0
00
E0
ENDCHAR
STARTCHAR greater
ENCODING 62
SWIDTH 400 0
DWIDTH 4 0
BBX 3 5 0 1
BITMAP
80
40
20
40
80
ENDCHAR
STARTCHAR question
ENCODING 63
SWIDTH 400 0
DWIDTH 4 0
BBX 3 7 0 0
BITMAP
E0
A0
20
60
40
00
40
ENDCHAR
STARTCHAR at
ENCODING 64
SWIDTH 400 0
DWIDTH 4 0
BBX 3 9 0 -2
BITMAP
E0
00
E0
20
E0
A0
E0
00
E0
ENDCHAR
STARTCHAR A
ENCODING 65
SWIDTH 400 0
DWIDTH 4 0
BBX 3 7 0 0
BITMAP
E0
A0
A0
A0
E0
A0
A0
ENDCHAR
STARTCHAR B
ENCODING 66
SWIDTH 400 0
DWIDTH 4 0
BBX 3 7 0 0
BITMAP
C0
A0
A0
C0
A0
A0
C0
ENDCHAR
STARTCHAR C
ENCODING 67
SWIDTH 400 0
DWIDTH 4 0
BBX 3 7 0 0
BITMAP
E0
80
80
80
80
80
E0
ENDCHAR
STARTCHAR D
ENCODING 68
SWIDTH 400 0
DWIDTH 4 0
BBX 3 7 0 0
BITMAP
C0
A0
A0
A0
A0
A0
C0
ENDCHAR
STARTCHAR E
ENCODING 69
SWIDTH 400 0
DWIDTH 4 0
BBX 3 7 0 0
BITMAP
E0
80
80
E0
80
80
E0
ENDCHAR
STARTCHAR F
ENCODING 70
SWIDTH 400 0
DWIDTH 4 0
BBX 3 7 0 0
BITMAP
E0
80
80
E0
80
80
80
ENDCHAR
STARTCHAR G
ENCODING 71
SWIDTH 400 0
DWIDTH 4 0
BBX 3 7 0 0
BITMAP
E0
80
80
80
A0
A0
E0
ENDCHAR
STARTCHAR H
ENCODING 72
SWIDTH 400 0
DWIDTH 4 0
BBX 3 7 0 0
BITMAP
A0
A0
A0
E0
A0
A0
A0
ENDCHAR
STARTCHAR I
ENCODING 73
SWIDTH 400 0
DWIDTH 4 0
BBX 3 7 0 0
BITMAP
E0
40
40
40
40
40
E0
ENDCHAR
STARTCHAR J
ENCODING 74
SWIDTH 400 0
DWIDTH 4 0
BBX 3 7 0 0
BITMAP
20
20
20
20
20
A0
E0
ENDCHAR
STARTCHAR K
ENCODING 75
SWIDTH 400 0
DWIDTH 4 0
BBX 3 7 0 0
BITMAP
A0
A0
C0
C0
C0
A0
A0
ENDCHAR
STARTCHAR L
ENCODING 76
SWIDTH 400 0
DWIDTH 4 0
BBX 3 7 0 0
BITMAP
80
80
80
80
80
80
E0
ENDCHAR
STARTCHAR M
ENCODING 77
SWIDTH 400 0
DWIDTH 4 0
BBX 3 7 0 0
BITMAP
A0
E0
E0
E0
A0
A0
A0
ENDCHAR
STARTCHAR N
ENCODING 78
SWIDTH 400 0
DWIDTH 4 0
BBX 3 7 0 0
BITMAP
A0
E0
E0
E0
E0
E0
A0
ENDCHAR
STARTCHAR O
ENCODING 79
SWIDTH 400 0
DWIDTH 4 0
BBX 3 7 0 0
BITMAP
E0
A0
A0
A0
A0
A0
E0
ENDCHAR
STARTCHAR P
ENCODING 80
SWIDTH 400 0
DWIDTH 4 0
BBX 3 7 0 0
BITMAP
E0
A0
A0
E0
80
80
80
ENDCHAR
STARTCHAR Q
ENCODING 81
SWIDTH 400 0
DWIDTH 4 0
BBX 3 8 0 -1
BITMAP
E0
A0
A0
A0
A0
E0
E0
20
ENDCHAR
STARTCHAR R
ENCODING 82
SWIDTH 400 0
DWIDTH 4 0
BBX 3 7 0 0
BITMAP
E0
A0
A0
C0
A0
A0
A0
ENDCHAR
STARTCHAR S
ENCODING 83
SWIDTH 400 0
DWIDTH 4 0
BBX 3 7 0 0
BITMAP
E0
80
80
40
20
20
E0
ENDCHAR
STARTCHAR T
ENCODING 84
SWIDTH 400 0
DWIDTH 4 0
BBX 3 7 0 0
BITMAP
E0
40
40
40
40
40
40
ENDCHAR
STARTCHAR U
ENCODING 85
SWIDTH 400 0
DWIDTH 4 0
BBX 3 7 0 0
BITMAP
A0
A0
A0
A0
A0
A0
E0
ENDCHAR
STARTCHAR V
ENCODING 86
SWIDTH 400 0
DWIDTH 4 0
BBX 3 7 0 0
BITMAP
A0
A0
A0
A0
A0
40
40
ENDCHAR
STARTCHAR W
ENCODING 87
SWIDTH 400 0
DWIDTH 4 0
BBX 3 7 0 0
BITMAP
A0
A0
A0
E0
E0
E0
A0
ENDCHAR
STARTCHAR X
ENCODING 88
SWIDTH 400 0
DWIDTH 4 0
BBX 3 7 0 0
BITMAP
A0
A0
40
40
40
A0
A0
ENDCHAR
STARTCHAR Y
ENCODING 89
SWIDTH 400 0
DWIDTH 4 0
BBX 3 7 0 0
BITMAP
A0
A0
A0
40
40
40
40
ENDCHAR
STARTCHAR Z
ENCODING 90
SWIDTH 400 0
DWIDTH 4 0
BBX 3 7 0 0
BITMAP
E0
20
40
40
40
80
E0
ENDCHAR
STARTCHAR bracketleft
ENCODING 91
SWIDTH 400 0
DWIDTH 4 0
BBX 2 9 1 -1
BITMAP
C0
80
80
80
80
80
80
80
C0
ENDCHAR
STARTCHAR backslash
ENCODING 92
SWIDTH 400 0
DWIDTH 4 0
BBX 3 9 0 -1
BITMAP
80
80
80
40
40
40
20
20
20
ENDCHAR
STARTCHAR bracketright
ENCODING 93
SWIDTH 400 0
DWIDTH 4 0
BBX 3 9 0 -1
BITMAP
80
40
40
40
60
40
40
40
80
ENDCHAR
STARTCHAR asciicircum
ENCODING 94
SWIDTH 400 0
DWIDTH 4 0
BBX 3 2 0 5
BITMAP
40
A0
ENDCHAR
STARTCHAR underscore
ENCODING 95
SWIDTH 400 0
DWIDTH 4 0
BBX 4 1 0 0
BITMAP
F0
ENDCHAR
STARTCHAR grave
ENCODING 96
SWIDTH 400 0
DWIDTH 4 0
BBX 3 3 0 4
BITMAP
80
40
20
ENDCHAR
STARTCHAR a
ENCODING 97
SWIDTH 400 0
DWIDTH 4 0
BBX 3 5 0 0
BITMAP
E0
20
E0
A0
E0
ENDCHAR
STARTCHAR b
ENCODING 98
SWIDTH 400 0
DWIDTH 4 0
BBX 3 8 0 0
BITMAP
80
80
80
E0
A0
A0
A0
E0
ENDCHAR
STARTCHAR c
ENCODING 99
SWIDTH 400 0
DWIDTH 4 0
BBX 3 5 0 0
BITMAP
E0
80
80
80
E0
ENDCHAR
STARTCHAR d
ENCODING 100
SWIDTH 400 0
DWIDTH 4 0
BBX 3 8 0 0
BITMAP
20
20
20
E0
A0
A0
A0
E0
ENDCHAR
STARTCHAR e
ENCODING 101
SWIDTH 400 0
DWIDTH 4 0
BBX 3 5 0 0
BITMAP
E0
A0
E0
80
E0
ENDCHAR
STARTCHAR f
ENCODING 102
SWIDTH 400 0
DWIDTH 4 0
BBX 3 8 0 0
BITMAP
60
40
40
E0
40
40
40
40
ENDCHAR
STARTCHAR g
ENCODING 103
SWIDTH 400 0
DWIDTH 4 0
BBX 3 7 0 -2
BITMAP
E0
A0
A0
A0
E0
20
E0
ENDCHAR
STARTCHAR h
ENCODING 104
SWIDTH 400 0
DWIDTH 4 0
BBX 3 8 0 0
BITMAP
80
80
80
E0
A0
A0
A0
A0
ENDCHAR
STARTCHAR i
ENCODING 105
SWIDTH 400 0
DWIDTH 4 0
BBX 1 7 1 0
BITMAP
80
00
80
80
80
80
80
ENDCHAR
STARTCHAR j
ENCODING 106
SWIDTH 400 0
DWIDTH 4 0
BBX 2 9 0 -2
BITMAP
40
00
40
40
40
40
40
40
C0
ENDCHAR
STARTCHAR k
ENCODING 107
SWIDTH 400 0
DWIDTH 4 0
BBX 3 8 0 0
BITMAP
80
80
80
A0
A0
C0
A0
A0
ENDCHAR
STARTCHAR l
ENCODING 108
SWIDTH 400 0
DWIDTH 4 0
BBX 2 8 1 0
BITMAP
80
80
80
80
80
80
80
C0
ENDCHAR
STARTCHAR m
ENCODING 109
SWIDTH 400 0
DWIDTH 4 0
BBX 3 5 0 0
BITMAP
E0
E0
E0
E0
A0
ENDCHAR
STARTCHAR n
ENCODING 110
SWIDTH 400 0
DWIDTH 4 0
BBX 3 5 0 0
BITMAP
E0
A0
A0
A0
A0
ENDCHAR
STARTCHAR o
ENCODING 111
SWIDTH 400 0
DWIDTH 4 0
BBX 3 5 0 0
BITMAP
E0
A0
A0
A0
E0
ENDCHAR
STARTCHAR p
ENCODING 112
SWIDTH 400 0
DWIDTH 4 0
BBX 3 7 0 -2
BITMAP
E0
A0
A0
A0
E0
80
80
ENDCHAR
STARTCHAR q
ENCODING 113
SWIDTH 400 0
DWIDTH 4 0
BBX 3 7 0 -2
BITMAP
E0
A0
A0
A0
E0
20
20
ENDCHAR
STARTCHAR r
ENCODING 114
SWIDTH 400 0
DWIDTH 4 0
BBX 3 5 0 0
BITMAP
E0
80
80
80
80
ENDCHAR
STARTCHAR s
ENCODING 115
SWIDTH 400 0
DWIDTH 4 0
BBX 3 5 0 0
BITMAP
E0
80
E0
20
E0
ENDCHAR
STARTCHAR t
ENCODING 116
SWIDTH 400 0
DWIDTH 4 0
BBX 3 7 0 0
BITMAP
40
40
E0
40
40
40
60
ENDCHAR
STARTCHAR u
ENCODING 117
SWIDTH 400 0
DWIDTH 4 0
BBX 3 5 0 0
BITMAP
A0
A0
A0
A0
E0
ENDCHAR
STARTCHAR v
ENCODING 118
SWIDTH 400 0
DWIDTH 4 0
BBX 3 5 0 0
BITMAP
A0
A0
A0
A0
40
ENDCHAR
STARTCHAR w
ENCODING 119
SWIDTH 400 0
DWIDTH 4 0
BBX 3 5 0 0
BITMAP
A0
E0
E0
E0
E0
ENDCHAR
STARTCHAR x
ENCODING 120
SWIDTH 400 0
DWIDTH 4 0
BBX 3 5 0 0
BITMAP
A0
A0
40
A0
A0
ENDCHAR
STARTCHAR y
ENCODING 121
SWIDTH 400 0
DWIDTH 4 0
BBX 3 7 0 -2
BITMAP
A0
A0
A0
A0
E0
20
E0
ENDCHAR
STARTCHAR z
ENCODING 122
SWIDTH 400 0
DWIDTH 4 0
BBX 3 5 0 0
BITMAP
E0
20
40
80
E0
ENDCHAR
STARTCHAR braceleft
ENCODING 123
SWIDTH 400 0
DWIDTH 4 0
BBX 3 9 0 -1
BITMAP
20
40
40
40
C0
40
40
40
20
ENDCHAR
STARTCHAR bar
ENCODING 124
SWIDTH 400 0
DWIDTH 4 0
BBX 1 9 1 -1
BITMAP
80
80
80
80
80
80
80
80
80
ENDCHAR
STARTCHAR braceright
ENCODING 125
SWIDTH 400 0
DWIDTH 4 0
BBX 3 9 0 -1
BITMAP
80
40
40
40
60
40
40
40
80
ENDCHAR
STARTCHAR asciitilde
ENCODING 126
SWIDTH 400 0
DWIDTH 4 0
BBX 3 3 0 2
BITMAP
C0
40
60
ENDCHAR
ENDFONT
